<svg width="100%" height="auto" viewBox="0 0 158 32" fill="none" xmlns="http://www.w3.org/2000/svg">
    <g>
        <circle cx="16.5" cy="16" r="16" fill="#fff"></circle>
    </g>
    <path d="M8.59979 14.6151C8.59979 11.8183 8.59979 10.4199 8.93118 9.94941C9.26256 9.47896 10.5822 9.02887 13.2213 8.12869L13.7242 7.95719C15.0999 7.48795 15.7878 7.25333 16.5 7.25333C17.2122 7.25333 17.9001 7.48795 19.2759 7.95719L19.7787 8.12869C22.4179 9.02887 23.7375 9.47896 24.0688 9.94941C24.4002 10.4199 24.4002 11.8183 24.4002 14.6151C24.4002 15.0376 24.4002 15.4957 24.4002 15.9924C24.4002 20.9239 20.6793 23.317 18.3447 24.3332C17.7114 24.6088 17.3947 24.7467 16.5 24.7467C15.6053 24.7467 15.2887 24.6088 14.6554 24.3332C12.3208 23.317 8.59979 20.9239 8.59979 15.9924C8.59979 15.4957 8.59979 15.0376 8.59979 14.6151Z" fill="black"></path>
    <path d="M48.2713 23H44.9759L49.9972 8.45455H53.9602L58.9744 23H55.679L52.0355 11.7784H51.9219L48.2713 23ZM48.0653 17.2827H55.8494V19.6832H48.0653V17.2827ZM60.7251 8.45455H64.5178L68.5234 18.2273H68.6939L72.6996 8.45455H76.4922V23H73.5092V13.5327H73.3885L69.6243 22.929H67.593L63.8288 13.4972H63.7081V23H60.7251V8.45455ZM79.0259 23V8.45455H82.1012V20.4645H88.337V23H79.0259ZM107.836 13.5469H104.725C104.669 13.1444 104.553 12.7869 104.377 12.4744C104.202 12.1572 103.977 11.8873 103.703 11.6648C103.428 11.4422 103.111 11.2718 102.751 11.1534C102.396 11.035 102.01 10.9759 101.593 10.9759C100.841 10.9759 100.185 11.1629 99.6261 11.5369C99.0674 11.9062 98.6341 12.446 98.3263 13.1562C98.0186 13.8617 97.8647 14.7187 97.8647 15.7273C97.8647 16.7642 98.0186 17.6354 98.3263 18.3409C98.6388 19.0464 99.0745 19.5791 99.6332 19.9389C100.192 20.2988 100.838 20.4787 101.572 20.4787C101.984 20.4787 102.365 20.4242 102.716 20.3153C103.071 20.2064 103.386 20.0478 103.66 19.8395C103.935 19.6264 104.162 19.3684 104.342 19.0653C104.527 18.7623 104.654 18.4167 104.725 18.0284L107.836 18.0426C107.756 18.7102 107.555 19.3542 107.233 19.9744C106.915 20.59 106.487 21.1416 105.947 21.6293C105.412 22.1122 104.773 22.4957 104.029 22.7798C103.291 23.0592 102.455 23.1989 101.522 23.1989C100.225 23.1989 99.065 22.9053 98.0423 22.3182C97.0243 21.7311 96.2193 20.8812 95.6275 19.7685C95.0404 18.6558 94.7468 17.3087 94.7468 15.7273C94.7468 14.1411 95.0451 12.7917 95.6417 11.679C96.2383 10.5663 97.0479 9.71875 98.0707 9.13636C99.0934 8.54924 100.244 8.25568 101.522 8.25568C102.365 8.25568 103.146 8.37405 103.866 8.6108C104.591 8.84754 105.232 9.19318 105.791 9.64773C106.35 10.0975 106.804 10.6491 107.154 11.3026C107.51 11.956 107.737 12.7041 107.836 13.5469ZM113.01 16.6932V23H109.985V8.45455H112.925V14.0156H113.053C113.299 13.3717 113.697 12.8674 114.246 12.5028C114.795 12.1335 115.484 11.9489 116.313 11.9489C117.07 11.9489 117.731 12.1146 118.294 12.446C118.863 12.7727 119.303 13.2438 119.615 13.8594C119.933 14.4702 120.089 15.2017 120.084 16.054V23H117.059V16.5938C117.063 15.9214 116.893 15.3982 116.547 15.0241C116.206 14.6501 115.728 14.4631 115.113 14.4631C114.701 14.4631 114.336 14.5507 114.019 14.7259C113.706 14.901 113.46 15.1567 113.28 15.4929C113.105 15.8243 113.015 16.2244 113.01 16.6932ZM127.437 23.2131C126.315 23.2131 125.349 22.9858 124.539 22.5312C123.734 22.072 123.114 21.4233 122.678 20.5852C122.243 19.7424 122.025 18.7457 122.025 17.5952C122.025 16.473 122.243 15.4882 122.678 14.6406C123.114 13.7931 123.727 13.1326 124.518 12.6591C125.313 12.1856 126.246 11.9489 127.316 11.9489C128.036 11.9489 128.706 12.0649 129.326 12.2969C129.951 12.5241 130.496 12.8674 130.96 13.3267C131.428 13.786 131.793 14.3636 132.053 15.0597C132.314 15.7509 132.444 16.5606 132.444 17.4886V18.3196H123.232V16.4446H129.596C129.596 16.009 129.501 15.6231 129.312 15.2869C129.122 14.9508 128.86 14.688 128.523 14.4986C128.192 14.3045 127.806 14.2074 127.366 14.2074C126.906 14.2074 126.499 14.3139 126.144 14.527C125.794 14.7353 125.519 15.017 125.32 15.3722C125.121 15.7225 125.02 16.1132 125.015 16.544V18.3267C125.015 18.8665 125.114 19.3329 125.313 19.7259C125.517 20.1188 125.803 20.4219 126.173 20.6349C126.542 20.848 126.98 20.9545 127.487 20.9545C127.823 20.9545 128.13 20.9072 128.41 20.8125C128.689 20.7178 128.928 20.5758 129.127 20.3864C129.326 20.197 129.478 19.965 129.582 19.6903L132.38 19.875C132.238 20.5473 131.947 21.1345 131.506 21.6364C131.071 22.1335 130.507 22.5218 129.816 22.8011C129.129 23.0758 128.336 23.2131 127.437 23.2131ZM139.347 23.2131C138.23 23.2131 137.269 22.9763 136.464 22.5028C135.664 22.0246 135.048 21.3617 134.617 20.5142C134.191 19.6667 133.978 18.6913 133.978 17.5881C133.978 16.4706 134.193 15.4905 134.624 14.6477C135.06 13.8002 135.678 13.1397 136.478 12.6662C137.278 12.188 138.23 11.9489 139.333 11.9489C140.285 11.9489 141.118 12.1217 141.833 12.4673C142.548 12.813 143.114 13.2983 143.531 13.9233C143.947 14.5483 144.177 15.2822 144.219 16.125H141.364C141.284 15.5805 141.071 15.1425 140.725 14.8111C140.384 14.4749 139.937 14.3068 139.383 14.3068C138.914 14.3068 138.504 14.4347 138.154 14.6903C137.808 14.9413 137.539 15.3082 137.344 15.7912C137.15 16.2741 137.053 16.8589 137.053 17.5455C137.053 18.2415 137.148 18.8333 137.337 19.321C137.531 19.8087 137.804 20.1804 138.154 20.4361C138.504 20.6918 138.914 20.8196 139.383 20.8196C139.728 20.8196 140.039 20.7486 140.313 20.6065C140.593 20.4645 140.822 20.2585 141.002 19.9886C141.187 19.714 141.308 19.3849 141.364 19.0014H144.219C144.172 19.8348 143.945 20.5687 143.538 21.2031C143.135 21.8329 142.579 22.3253 141.869 22.6804C141.158 23.0355 140.318 23.2131 139.347 23.2131ZM148.898 19.8608L148.905 16.2315H149.346L152.84 12.0909H156.313L151.618 17.5739H150.901L148.898 19.8608ZM146.157 23V8.45455H149.182V23H146.157ZM152.975 23L149.765 18.2486L151.782 16.1108L156.519 23H152.975Z" fill="#fff"></path>
</svg>
